<svg width="64" height="64" viewBox="0 0 64 64" fill="none" xmlns="http://www.w3.org/2000/svg">
<path d="M22 26C13.1637 26 6 32.0444 6 39.5C6 45.8746 11.2382 51.2138 18.28 52.6293C17.9157 52.5561 17.5545 52.474 17.2 52.3806V49.2875C17.2 49.2875 16.6 49.4563 15.8 49.4563C13.5618 49.4563 12.632 47.7713 12.4 46.925C12.2591 46.4094 11.8911 45.9208 11.496 45.6223C11.024 45.2671 10.8031 45.2661 10.8 45.1446C10.7938 44.8896 11.2049 44.9 11.4 44.9C12.4 44.9 13.1582 45.7977 13.5102 46.2619C14.3822 47.4079 15.3182 47.6 15.8 47.6C16.4 47.6 16.9182 47.5242 17.2751 47.3788C17.44 46.3985 17.9569 45.5252 18.8 44.9C15.048 44.2671 12.4 42.4513 12.4 39.5C12.4 37.9797 13.1231 36.5824 14.328 35.4542C14.2049 35.1598 14 34.5642 14 33.5938C14 32.9525 14.0529 32.1653 14.4 31.4C14.4 31.4 16.6818 31.4135 18.8338 33.1332C19.8271 32.8892 20.8898 32.75 22 32.75C23.1102 32.75 24.1729 32.8892 25.1662 33.1332C27.3182 31.4135 29.6 31.4 29.6 31.4C29.9489 32.1653 30 32.9525 30 33.5938C30 34.64 29.8351 35.2501 29.7342 35.5133C30.9022 36.6313 31.6 38.0067 31.6 39.5C31.6 42.4513 28.952 44.2671 25.2 44.9C26.2018 45.6425 26.8 46.7241 26.8 47.9375V52.3806C26.4455 52.4745 26.0849 52.5561 25.72 52.6293C32.7618 51.2138 38 45.8746 38 39.5C38 32.0444 30.8363 26 22 26ZM23.1157 52.9637C22.7471 52.9855 22.3754 53 22 53C22.3754 53 22.7465 52.9849 23.1157 52.9637ZM25.5606 52.6604C24.8443 52.798 24.1102 52.8946 23.3606 52.9481C24.1102 52.8946 24.8443 52.7975 25.5606 52.6604ZM22 53C21.6246 53 21.2529 52.9855 20.8843 52.9637C21.2535 52.9849 21.6246 53 22 53ZM20.6388 52.9481C19.8898 52.8946 19.1551 52.798 18.4394 52.6604C19.1557 52.7975 19.8898 52.8946 20.6388 52.9481Z" fill="#FEF8F8"/>
</svg>
