<svg width="32" height="27" viewBox="0 0 32 27" fill="none" xmlns="http://www.w3.org/2000/svg">
<g clip-path="url(#clip0_1_10)">
<path d="M19.772 7.08975C18.788 7.0515 18.492 7.04475 16 7.04475C13.508 7.04475 13.2133 7.05263 12.2293 7.08975C9.69733 7.18763 8.51867 8.199 8.40267 10.3185C8.35867 11.1487 8.348 11.3974 8.348 13.5C8.348 15.6026 8.35867 15.8513 8.40267 16.6826C8.51867 18.7965 9.692 19.8135 12.2293 19.9114C13.212 19.9485 13.508 19.9575 16 19.9575C18.4933 19.9575 18.788 19.9496 19.772 19.9114C22.304 19.8146 23.4813 18.7999 23.5987 16.6826C23.6427 15.8524 23.652 15.6026 23.652 13.5C23.652 11.3974 23.6427 11.1487 23.5987 10.3185C23.4813 8.20012 22.3013 7.18763 19.772 7.08975V7.08975ZM16 17.5444C13.3533 17.5444 11.2067 15.7342 11.2067 13.5C11.2067 11.2669 13.3533 9.45675 16 9.45675C18.6467 9.45675 20.7933 11.2669 20.7933 13.5C20.7933 15.7331 18.6467 17.5444 16 17.5444ZM20.9827 10.242C20.364 10.242 19.8627 9.819 19.8627 9.297C19.8627 8.775 20.364 8.352 20.9827 8.352C21.6013 8.352 22.1027 8.775 22.1027 9.297C22.1027 9.81787 21.6013 10.242 20.9827 10.242V10.242ZM19.1107 13.5C19.1107 14.9501 17.7173 16.1246 16 16.1246C14.2827 16.1246 12.8893 14.9501 12.8893 13.5C12.8893 12.0499 14.2827 10.8754 16 10.8754C17.7173 10.8754 19.1107 12.0499 19.1107 13.5ZM16 0C7.164 0 0 6.04463 0 13.5C0 20.9554 7.164 27 16 27C24.836 27 32 20.9554 32 13.5C32 6.04463 24.836 0 16 0ZM25.2773 16.7467C25.124 19.6099 23.2347 21.1961 19.8493 21.3278C18.8533 21.366 18.5347 21.375 16 21.375C13.4653 21.375 13.148 21.366 12.152 21.3278C8.76 21.1961 6.87867 19.6076 6.72267 16.7467C6.67733 15.9075 6.66667 15.6386 6.66667 13.5C6.66667 11.3614 6.67733 11.0936 6.72267 10.2533C6.87867 7.39125 8.76133 5.80388 12.152 5.67338C13.148 5.634 13.4653 5.625 16 5.625C18.5347 5.625 18.8533 5.634 19.8493 5.67338C23.2427 5.805 25.1253 7.39688 25.2773 10.2533C25.3227 11.0936 25.3333 11.3614 25.3333 13.5C25.3333 15.6386 25.3227 15.9075 25.2773 16.7467Z" fill="#FFFAFA"/>
</g>
<defs>
<clipPath id="clip0_1_10">
<rect width="32" height="27" fill="white"/>
</clipPath>
</defs>
</svg>
