<svg width="32" height="27" viewBox="0 0 32 27" fill="none" xmlns="http://www.w3.org/2000/svg">
<rect width="32" height="27" fill="#1E1E1E"/>
<g clip-path="url(#clip0_0_1)">
<path d="M16 0C7.164 0 0 6.04463 0 13.5C0 20.9554 7.164 27 16 27C24.836 27 32 20.9554 32 13.5C32 6.04463 24.836 0 16 0ZM18.9573 20.943C18.4853 21.0206 18.3333 20.7754 18.3333 20.565V18.4039C18.3333 17.6692 18.028 17.19 17.692 16.9459C19.772 16.7513 21.956 16.0853 21.956 13.0601C21.956 12.1995 21.592 11.4975 20.9947 10.9462C21.0907 10.7471 21.4107 9.94612 20.9027 8.86162C20.9027 8.86162 20.12 8.65013 18.3387 9.66825C17.5907 9.495 16.7933 9.40837 16 9.405C15.2067 9.40837 14.4093 9.495 13.6627 9.66938C11.88 8.65125 11.096 8.86275 11.096 8.86275C10.5907 9.94725 10.9093 10.7482 11.0067 10.9462C10.4093 11.4975 10.044 12.1995 10.044 13.0601C10.044 16.0774 12.2227 16.7524 14.296 16.9515C14.0293 17.1484 13.788 17.4949 13.704 18.0045C13.1707 18.2059 11.82 18.5535 10.988 17.3498C10.988 17.3498 10.4947 16.5938 9.55733 16.5375C9.55733 16.5375 8.64667 16.5274 9.49333 17.0168C9.49333 17.0168 10.1067 17.2586 10.5293 18.1687C10.5293 18.1687 11.0693 19.575 13.6667 19.098V20.5639C13.6667 20.772 13.516 21.0161 13.0507 20.943C9.34133 19.9024 6.66667 16.9504 6.66667 13.4719C6.66667 9.1215 10.8467 5.59687 16 5.59687C21.1533 5.59687 25.3333 9.1215 25.3333 13.4719C25.3333 16.9493 22.6627 19.9012 18.9573 20.943Z" fill="white"/>
</g>
<defs>
<clipPath id="clip0_0_1">
<rect width="32" height="27" fill="white"/>
</clipPath>
</defs>
</svg>
