<svg width="32" height="27" viewBox="0 0 32 27" fill="none" xmlns="http://www.w3.org/2000/svg">
<path d="M16 2.25C23.352 2.25 29.3333 7.29675 29.3333 13.5C29.3333 19.7032 23.352 24.75 16 24.75C8.648 24.75 2.66667 19.7032 2.66667 13.5C2.66667 7.29675 8.648 2.25 16 2.25ZM16 0C7.164 0 0 6.04463 0 13.5C0 20.9554 7.164 27 16 27C24.836 27 32 20.9554 32 13.5C32 6.04463 24.836 0 16 0ZM13.3333 9C13.3333 9.62662 12.7373 10.134 12 10.134C11.2627 10.134 10.6667 9.62775 10.6667 9C10.6667 8.37338 11.2627 7.866 12 7.866C12.7373 7.866 13.3333 8.3745 13.3333 9ZM13.3333 11.25H10.6667V18H13.3333V11.25ZM17.3333 11.25H14.6667V18H17.3333V14.7814C17.3333 12.8441 20.0027 12.6653 20.0027 14.7814V18H22.6667V14.2211C22.6667 10.5266 18.496 10.6616 17.3333 12.4796V11.25Z" fill="white"/>
</svg>
